PathFileType	3	(X/Y/Z)	RCH0000002 BBF 03.c3d
DataRate	CameraRate	NumFrames	NumMarkers	Units	OrigDataRate	OrigDataStartFrame	OrigNumFrames
100.0	100.0	5	23	mm	100.0	543	376
Frame#	Time	T2			T10			LASI			LPSI			RPSI			LANK			LMED			LTOE			RPAT			RANK			RMED			RHEE			RTOE			MAN			LPAT			RKNE			LKNE			RASI			LHEE			RTHI			LTHI			RTIB			LTIB			
		X1	Y1	Z1	X2	Y2	Z2	X3	Y3	Z3	X4	Y4	Z4	X5	Y5	Z5	X6	Y6	Z6	X7	Y7	Z7	X8	Y8	Z8	X9	Y9	Z9	X10	Y10	Z10	X11	Y11	Z11	X12	Y12	Z12	X13	Y13	Z13	X14	Y14	Z14	X15	Y15	Z15	X16	Y16	Z16	X17	Y17	Z17	X18	Y18	Z18	X19	Y19	Z19	X20	Y20	Z20	X21	Y21	Z21	X22	Y22	Z22	X23	Y23	Z23	

543	5.420	1283.73072	16.87510	966.24752	1302.99221	22.71733	779.61744	1375.49798	115.77846	627.25047	1281.87613	44.25629	688.03354	1297.18017	-23.87987	697.78086	1109.87952	133.71443	128.73881	1120.54727	64.54843	136.37862	1143.51815	98.70525	91.53969	1465.37750	4.66543	383.61532	1400.40879	-86.11509	74.48908	1371.61523	-22.18696	84.37478	1347.30453	-68.67121	104.02425	1434.29948	-39.89008	69.91270	1415.33594	35.53184	942.25053	1361.42463	72.65779	340.87857	1437.69715	-57.57015	343.88895	1301.01244	125.07773	318.19918	1417.76095	-54.79030	647.01775	1097.61011	93.21438	175.09205	1446.83877	-126.88130	455.35442	1306.22914	191.07792	445.24365	1438.30543	-133.84170	233.86898	1223.06902	191.40002	240.89145	
544	5.430	1292.10199	17.69175	966.99414	1312.22793	23.77860	780.73547	1385.55122	113.75552	627.21317	1291.18827	44.50270	689.62489	1305.83740	-23.71246	700.63192	1124.92956	132.78773	132.30071	1135.99759	63.53993	138.66651	1158.38693	98.36597	94.20374	1466.70653	0.57076	383.77287	1399.97046	-87.06476	74.66566	1371.30141	-23.22101	85.24696	1346.89251	-69.77858	104.56304	1433.90976	-40.79263	70.17406	1423.87256	35.98474	943.79348	1378.46813	70.38235	342.27112	1438.09108	-61.37016	344.66202	1318.63695	123.19714	318.54611	1425.73667	-56.91156	649.55762	1113.42680	91.69166	178.06162	1450.22223	-130.46131	455.96852	1321.11844	189.09452	445.74085	1437.66839	-136.66394	233.56145	1239.77956	189.68680	243.21771	
545	5.440	1300.34583	18.71136	968.05768	1321.16998	24.67585	782.16595	1395.38902	111.68067	627.64681	1300.26359	44.56984	691.51147	1314.23778	-23.71137	703.56000	1141.02954	131.64087	135.37950	1152.79435	62.35149	140.53183	1174.79070	98.04345	96.74060	1467.69736	-3.41186	384.10927	1399.65418	-87.80513	74.98139	1371.17849	-24.03371	86.20487	1346.57272	-70.62979	105.17375	1433.69576	-41.50771	70.51141	1432.25149	36.57785	945.51236	1395.42189	68.39067	344.56430	1438.18463	-65.08273	345.60307	1336.16058	121.51843	319.66340	1433.40820	-59.11227	652.17836	1130.14022	89.81325	180.37894	1453.25913	-133.98213	456.66660	1335.77324	187.30363	446.94037	1436.79560	-139.38670	233.42533	1256.45217	188.01459	245.92013	
546	5.450	1308.47230	19.86796	969.40304	1329.82265	25.37797	783.85459	1405.00800	109.60636	628.51995	1309.10340	44.47347	693.61790	1322.39499	-23.86312	706.48177	1158.16053	130.25929	137.86088	1170.89276	60.97206	141.91071	1192.68863	97.69238	99.06100	1468.47674	-7.18077	384.55881	1399.47057	-88.34136	75.40556	1371.25954	-24.62688	87.21226	1346.37629	-71.22327	105.83814	1433.66242	-42.04167	70.88991	1440.47835	37.28193	947.36416	1412.25543	66.77130	347.70226	1438.10980	-68.61033	346.64275	1353.52247	120.08163	321.50451	1440.80740	-61.34181	654.81050	1147.72143	87.59549	181.97003	1456.03803	-137.35257	457.38809	1350.10225	185.75394	448.77779	1435.79755	-141.94505	233.42587	1273.06622	186.40560	248.88033	
547	5.460	1316.49361	21.09302	970.98519	1338.19531	25.87011	785.73788	1414.41096	107.58298	629.77861	1317.71157	44.24537	695.85910	1330.32130	-24.13976	709.31939	1176.30822	128.65008	139.66271	1190.22727	59.40934	142.77302	1212.01359	97.27059	101.09406	1469.17797	-10.66411	385.06818	1399.41818	-88.69191	75.91545	1371.54025	-25.01669	88.24587	1346.32142	-71.57412	106.55016	1433.79956	-42.41298	71.28508	1448.56176	38.06557	949.30019	1428.95692	65.58430	351.59815	1437.99663	-71.87585	347.72364	1370.69414	118.91135	323.99008	1447.96641	-63.55162	657.39168	1166.14631	85.08741	182.80054	1458.64247	-140.50137	458.08706	1364.04825	184.47944	451.15378	1434.78002	-144.29076	233.53467	1289.65050	184.87943	251.95914	
